<svg width="18" height="20" viewBox="0 0 18 20" fill="none" xmlns="http://www.w3.org/2000/svg">
<path d="M1.50391 4.99984H3.17057M3.17057 4.99984H16.5039M3.17057 4.99984V16.6665C3.17057 17.1085 3.34617 17.5325 3.65873 17.845C3.97129 18.1576 4.39521 18.3332 4.83724 18.3332H13.1706C13.6126 18.3332 14.0365 18.1576 14.3491 17.845C14.6616 17.5325 14.8372 17.1085 14.8372 16.6665V4.99984H3.17057ZM5.67057 4.99984V3.33317C5.67057 2.89114 5.84617 2.46722 6.15873 2.15466C6.47129 1.8421 6.89521 1.6665 7.33724 1.6665H10.6706C11.1126 1.6665 11.5365 1.8421 11.8491 2.15466C12.1616 2.46722 12.3372 2.89114 12.3372 3.33317V4.99984M7.33724 9.1665V14.1665M10.6706 9.1665V14.1665" stroke="white" stroke-width="1.67" stroke-linecap="round" stroke-linejoin="round"/>
</svg>
